<svg width="16" height="16" viewBox="0 0 16 16" fill="none" xmlns="http://www.w3.org/2000/svg">
<path d="M15.5 5.5C15.7761 5.5 16 5.72386 16 6C16 6.27614 15.7761 6.5 15.5 6.5H0.5C0.223858 6.5 0 6.27614 0 6C0 5.72386 0.223858 5.5 0.5 5.5H15.5Z" fill="currentColor"/>
<path d="M15 4.5C15 4.23478 14.8946 3.9805 14.707 3.79297C14.5195 3.60543 14.2652 3.5 14 3.5H2C1.73478 3.5 1.48051 3.60543 1.29297 3.79297C1.10543 3.98051 1 4.23478 1 4.5V13.5C1 13.7652 1.10543 14.0195 1.29297 14.207C1.4805 14.3946 1.73478 14.5 2 14.5H14L14.0986 14.4951C14.3276 14.4724 14.5429 14.3712 14.707 14.207C14.8946 14.0195 15 13.7652 15 13.5V4.5ZM16 13.5C16 14.0304 15.7891 14.539 15.4141 14.9141C15.039 15.2891 14.5304 15.5 14 15.5H2C1.46957 15.5 0.96101 15.2891 0.585938 14.9141C0.210865 14.539 0 14.0304 0 13.5V4.5C0 3.96957 0.210865 3.46101 0.585938 3.08594C0.96101 2.71086 1.46957 2.5 2 2.5H14C14.5304 2.5 15.039 2.71086 15.4141 3.08594C15.7891 3.46101 16 3.96957 16 4.5V13.5Z" fill="currentColor"/>
<path d="M4 3V1C4 0.723858 4.22386 0.5 4.5 0.5C4.77614 0.5 5 0.723858 5 1V3C5 3.27614 4.77614 3.5 4.5 3.5C4.22386 3.5 4 3.27614 4 3Z" fill="currentColor"/>
<path d="M11 3V1C11 0.723858 11.2239 0.5 11.5 0.5C11.7761 0.5 12 0.723858 12 1V3C12 3.27614 11.7761 3.5 11.5 3.5C11.2239 3.5 11 3.27614 11 3Z" fill="currentColor"/>
</svg>
