<svg width="16" height="16" viewBox="0 0 16 16" fill="none" xmlns="http://www.w3.org/2000/svg">
<path d="M13.1464 2.14651C13.3417 1.95125 13.6582 1.95125 13.8535 2.14651C14.0487 2.34177 14.0487 2.65828 13.8535 2.85354L2.85348 13.8535C2.65822 14.0488 2.34171 14.0488 2.14645 13.8535C1.95118 13.6583 1.95118 13.3418 2.14645 13.1465L13.1464 2.14651Z" fill="currentColor"/>
<path d="M2.14645 2.14651C2.34171 1.95125 2.65822 1.95125 2.85348 2.14651L13.8535 13.1465C14.0487 13.3418 14.0487 13.6583 13.8535 13.8535C13.6582 14.0488 13.3417 14.0488 13.1464 13.8535L2.14645 2.85354C1.95118 2.65828 1.95118 2.34177 2.14645 2.14651Z" fill="currentColor"/>
</svg>
