<svg width="16" height="16" viewBox="0 0 16 16" fill="none" xmlns="http://www.w3.org/2000/svg">
<path d="M8.00002 2C10.4554 2 12.4536 3.4951 13.7988 4.9043C14.4787 5.61656 15.0116 6.32775 15.374 6.85938C15.5554 7.12534 15.6951 7.34766 15.7901 7.50488C15.8375 7.58352 15.8746 7.64601 15.8994 7.68945C15.9118 7.71111 15.9211 7.72832 15.9278 7.74023C15.9311 7.74619 15.9337 7.7515 15.9356 7.75488C15.9364 7.7564 15.937 7.75783 15.9375 7.75879L15.9385 7.75977L15.5 8L15.9385 8.24023L15.9375 8.24121C15.937 8.24217 15.9364 8.2436 15.9356 8.24512C15.9337 8.2485 15.9311 8.25381 15.9278 8.25977C15.9211 8.27168 15.9118 8.28889 15.8994 8.31055C15.8746 8.35399 15.8375 8.41648 15.7901 8.49512C15.6951 8.65234 15.5554 8.87466 15.374 9.14062C15.0116 9.67225 14.4787 10.3834 13.7988 11.0957C12.4536 12.5049 10.4554 14 8.00002 14C5.54464 14 3.54645 12.5049 2.20119 11.0957C1.5213 10.3834 0.988467 9.67225 0.625994 9.14062C0.444665 8.87466 0.304932 8.65234 0.209978 8.49512C0.162491 8.41648 0.125484 8.35399 0.100603 8.31055C0.0882001 8.28889 0.078937 8.27168 0.0722827 8.25977C0.068954 8.25381 0.0663365 8.2485 0.0644702 8.24512C0.0636303 8.2436 0.0630412 8.24217 0.0625171 8.24121L0.0615405 8.24023L0.500017 8L0.0615405 7.75977L0.0625171 7.75879C0.0630412 7.75783 0.0636303 7.7564 0.0644702 7.75488C0.0663365 7.7515 0.068954 7.74619 0.0722827 7.74023C0.078937 7.72832 0.0882001 7.71111 0.100603 7.68945C0.125484 7.64601 0.162491 7.58352 0.209978 7.50488C0.304932 7.34766 0.444665 7.12534 0.625994 6.85938C0.988467 6.32775 1.5213 5.61656 2.20119 4.9043C3.54645 3.4951 5.54464 2 8.00002 2ZM8.00002 3C5.95564 3 4.20358 4.25502 2.92385 5.5957C2.29154 6.25818 1.79274 6.92239 1.45217 7.42188C1.29071 7.65867 1.16553 7.85771 1.07912 8C1.16553 8.14229 1.29071 8.34133 1.45217 8.57812C1.79274 9.07761 2.29154 9.74182 2.92385 10.4043C4.20358 11.745 5.95564 13 8.00002 13C10.0444 13 11.7964 11.745 13.0762 10.4043C13.7085 9.74182 14.2073 9.07761 14.5479 8.57812C14.7092 8.34157 14.8335 8.14226 14.9199 8C14.8335 7.85774 14.7092 7.65843 14.5479 7.42188C14.2073 6.92239 13.7085 6.25818 13.0762 5.5957C11.7964 4.25502 10.0444 3 8.00002 3ZM0.500017 8L0.0615405 8.23926C-0.0198625 8.09002 -0.0198625 7.90998 0.0615405 7.76074L0.500017 8ZM15.9385 7.76074C16.0199 7.90998 16.0199 8.09002 15.9385 8.23926L15.5 8L15.9385 7.76074Z" fill="currentColor"/>
<path d="M10 8C10 6.89543 9.10457 6 8 6C6.89543 6 6 6.89543 6 8C6 9.10457 6.89543 10 8 10C9.10457 10 10 9.10457 10 8ZM11 8C11 9.65685 9.65685 11 8 11C6.34315 11 5 9.65685 5 8C5 6.34315 6.34315 5 8 5C9.65685 5 11 6.34315 11 8Z" fill="currentColor"/>
</svg>
