<svg width="16" height="16" viewBox="0 0 16 16" fill="none" xmlns="http://www.w3.org/2000/svg">
<path d="M8 1.33325C6.18958 1.33325 5.96042 1.34117 5.26458 1.37325C4.57 1.40575 4.09292 1.51575 3.67333 1.67659C3.23917 1.84284 2.87208 2.06825 2.50625 2.43409C2.14042 2.79992 1.91458 3.167 1.74833 3.60117C1.5875 4.02117 1.4775 4.49825 1.445 5.19242C1.41292 5.88867 1.405 6.11784 1.405 7.92825C1.405 9.73867 1.41292 9.96742 1.445 10.6633C1.4775 11.3579 1.5875 11.8346 1.74833 12.2546C1.91458 12.6887 2.14042 13.0558 2.50625 13.4217C2.87208 13.7875 3.23917 14.0133 3.67333 14.1796C4.09333 14.3404 4.57042 14.4504 5.26458 14.4829C5.96042 14.515 6.18958 14.5229 8 14.5229C9.81042 14.5229 10.0392 14.515 10.735 14.4829C11.4296 14.4504 11.9071 14.3404 12.3271 14.1796C12.7608 14.0133 13.1275 13.7875 13.4933 13.4217C13.8592 13.0558 14.085 12.6887 14.2517 12.2546C14.4121 11.8346 14.5221 11.3575 14.555 10.6633C14.5871 9.96742 14.595 9.73867 14.595 7.92825C14.595 6.11784 14.5871 5.88867 14.555 5.19284C14.5221 4.49825 14.4121 4.02117 14.2517 3.60117C14.085 3.167 13.8592 2.79992 13.4933 2.43409C13.1271 2.06825 12.7608 1.84284 12.3267 1.67659C11.9058 1.51575 11.4288 1.40575 10.7346 1.37325C10.0388 1.34117 9.81 1.33325 7.99917 1.33325H8.00042H8ZM7.41542 2.52409C7.59458 2.52367 7.79042 2.52409 8.00042 2.52409C9.78083 2.52409 9.99292 2.53075 10.6804 2.56242C11.3163 2.59159 11.6604 2.69825 11.8913 2.78742C12.1992 2.90534 12.4204 3.04617 12.6529 3.27909C12.8858 3.51159 13.0267 3.73325 13.145 4.04117C13.2342 4.27159 13.3413 4.61575 13.37 5.25159C13.4017 5.93867 13.4088 6.15117 13.4088 7.93034C13.4088 9.70951 13.4017 9.92201 13.37 10.6091C13.3408 11.2449 13.2342 11.5891 13.145 11.8195C13.0271 12.1274 12.8858 12.3483 12.6529 12.5808C12.42 12.8137 12.1996 12.9545 11.8913 13.0724C11.6608 13.162 11.3163 13.2683 10.6804 13.2974C9.99333 13.3291 9.78083 13.3362 8.00042 13.3362C6.21958 13.3362 6.0075 13.3291 5.32042 13.2974C4.68458 13.2679 4.34042 13.1612 4.10917 13.072C3.80125 12.9541 3.57958 12.8133 3.34667 12.5804C3.11375 12.3474 2.97292 12.1266 2.85458 11.8183C2.76542 11.5879 2.65833 11.2437 2.62958 10.6079C2.59792 9.92075 2.59125 9.70825 2.59125 7.92742C2.59125 6.14659 2.59792 5.93575 2.62958 5.24867C2.65875 4.61284 2.76542 4.26867 2.85458 4.03784C2.9725 3.72992 3.11375 3.50825 3.34667 3.27534C3.57958 3.04242 3.80125 2.90159 4.10917 2.78325C4.34 2.69367 4.68458 2.58742 5.32042 2.55784C5.92208 2.53034 6.16167 2.52367 7.41542 2.52242V2.52409ZM11.5421 3.62034C11.105 3.62034 10.7504 3.97451 10.7504 4.41159C10.7504 4.84867 11.105 5.20325 11.5421 5.20325C11.9792 5.20325 12.3338 4.84867 12.3338 4.41159C12.3338 3.97451 11.9792 3.61992 11.5421 3.61992V3.62034ZM8.00042 4.54367C6.13208 4.54367 4.61708 6.05867 4.61708 7.92742C4.61708 9.79617 6.13208 11.3104 8.00042 11.3104C9.86875 11.3104 11.3833 9.79575 11.3833 7.92742C11.3833 6.05909 9.86833 4.54367 8 4.54367H8.00042ZM8.00042 5.73451C9.21167 5.73451 10.1938 6.71617 10.1938 7.92742C10.1938 9.13825 9.21167 10.1203 8.00042 10.1203C6.78875 10.1203 5.80708 9.13825 5.80708 7.92742C5.80708 6.71617 6.78917 5.73451 8.00042 5.73451Z" fill="currentColor"/>
</svg>
