<svg width="16" height="16" viewBox="0 0 16 16" fill="none" xmlns="http://www.w3.org/2000/svg">
<path d="M13.6667 1.33325H2.33333C1.78105 1.33325 1.33333 1.78097 1.33333 2.33325V13.6666C1.33333 14.2189 1.78105 14.6666 2.33333 14.6666H13.6667C14.219 14.6666 14.6667 14.2189 14.6667 13.6666V2.33325C14.6667 1.78097 14.219 1.33325 13.6667 1.33325ZM5.33333 12.6666H3.33333V6.33325H5.33333V12.6666ZM4.33333 5.49992C3.68905 5.49992 3.16667 4.97754 3.16667 4.33325C3.16667 3.68897 3.68905 3.16659 4.33333 3.16659C4.97762 3.16659 5.5 3.68897 5.5 4.33325C5.5 4.97754 4.97762 5.49992 4.33333 5.49992ZM12.6667 12.6666H10.6667V9.53325C10.6667 7.77754 8.66667 7.91087 8.66667 9.53325V12.6666H6.66667V6.33325H8.66667V7.37754C9.52381 5.82611 12.6667 5.71087 12.6667 8.83325V12.6666Z" fill="currentColor"/>
</svg>
