<svg width="16" height="16" viewBox="0 0 16 16" fill="none" xmlns="http://www.w3.org/2000/svg">
<path d="M14 9C14 8.44814 13.5519 8 13 8H3C2.44814 8 2 8.44814 2 9V14C2 14.5519 2.44814 15 3 15H13C13.5519 15 14 14.5519 14 14V9ZM15 14C15 15.1041 14.1041 16 13 16H3C1.89586 16 1 15.1041 1 14V9C1 7.89586 1.89586 7 3 7H13C14.1041 7 15 7.89586 15 9V14Z" fill="currentColor"/>
<path d="M11 5.5V4C11 2.34314 9.65686 1 8 1C6.34314 1 5 2.34314 5 4V5.5C5 5.77614 4.77614 6 4.5 6C4.22386 6 4 5.77614 4 5.5V4C4 1.79086 5.79086 0 8 0C10.2091 0 12 1.79086 12 4V5.5C12 5.77614 11.7761 6 11.5 6C11.2239 6 11 5.77614 11 5.5Z" fill="currentColor"/>
<path d="M9 11.5C9 10.9477 8.55228 10.5 8 10.5C7.44772 10.5 7 10.9477 7 11.5C7 12.0523 7.44772 12.5 8 12.5C8.55228 12.5 9 12.0523 9 11.5ZM10 11.5C10 12.6046 9.10457 13.5 8 13.5C6.89543 13.5 6 12.6046 6 11.5C6 10.3954 6.89543 9.5 8 9.5C9.10457 9.5 10 10.3954 10 11.5Z" fill="currentColor"/>
</svg>
