<svg width="16" height="16" viewBox="0 0 16 16" fill="none" xmlns="http://www.w3.org/2000/svg">
<path d="M15 3C15 2.44814 14.5519 2 14 2H2C1.44814 2 1 2.44814 1 3V13C1 13.5519 1.44814 14 2 14H14C14.5519 14 15 13.5519 15 13V3ZM16 13C16 14.1041 15.1041 15 14 15H2C0.895858 15 0 14.1041 0 13V3C0 1.89586 0.895858 1 2 1H14C15.1041 1 16 1.89586 16 3V13Z" fill="currentColor"/>
<path d="M13.1836 4.1133C13.3973 3.93844 13.7119 3.96989 13.8867 4.18361C14.0616 4.39733 14.0301 4.71187 13.8164 4.88674L8.31642 9.38674C8.13224 9.53743 7.86779 9.53743 7.68361 9.38674L2.18361 4.88674C1.96989 4.71187 1.93844 4.39733 2.1133 4.18361C2.28816 3.96989 2.6027 3.93844 2.81642 4.1133L8.00002 8.35353L13.1836 4.1133Z" fill="currentColor"/>
</svg>
