<svg width="16" height="16" viewBox="0 0 16 16" fill="none" xmlns="http://www.w3.org/2000/svg">
<path d="M3.80709 0.0501765C4.15968 -0.0415935 4.5335 -0.0053395 4.86177 0.152716C5.19004 0.310881 5.45201 0.580509 5.60005 0.913458L6.99361 4.05115C7.13146 4.36164 7.16188 4.70935 7.0815 5.03943C7.00104 5.36959 6.81363 5.66402 6.5483 5.87635L5.3647 6.82166C6.3402 8.35714 7.64186 9.65848 9.1772 10.6342L10.1235 9.45154L10.1245 9.45057C10.3372 9.18603 10.6315 8.9994 10.9614 8.91932C11.2913 8.83925 11.6383 8.87057 11.9487 9.00818L15.0864 10.4008C15.4194 10.5488 15.6889 10.8107 15.8471 11.139C15.9855 11.4264 16.0304 11.7485 15.978 12.0609L15.9497 12.1937L15.2622 14.8441V14.8451C15.1669 15.2108 14.9405 15.5285 14.6264 15.7387C14.3122 15.9488 13.9316 16.0364 13.5571 15.9847H13.5561C10.135 15.5044 6.96286 13.9235 4.51998 11.4808C2.07712 9.03798 0.495544 5.86585 0.0150928 2.44471V2.44275C-0.0362848 2.06831 0.051221 1.68769 0.261187 1.37342C0.471157 1.05933 0.789279 0.832522 1.15474 0.7367H1.15572L3.80709 0.0501765ZM4.05904 1.01795H4.05806L1.40669 1.7035L1.40767 1.70447C1.27869 1.73836 1.16634 1.8182 1.09224 1.92908C1.01842 2.03957 0.987705 2.1734 1.00533 2.30506L1.10201 2.90369C1.64415 5.88043 3.08075 8.62756 5.22701 10.7738C7.51632 13.0629 10.4888 14.5443 13.6948 14.9945H13.6938C13.8257 15.0126 13.9601 14.9816 14.0708 14.9076C14.1812 14.8336 14.2608 14.7217 14.2944 14.5931L14.9819 11.9418C15.014 11.8184 15.0021 11.6875 14.9467 11.5726C14.9052 11.4865 14.8414 11.4137 14.7631 11.3607L14.6801 11.3148L11.5434 9.92225C11.4347 9.87405 11.3133 9.86304 11.1977 9.891C11.0824 9.91898 10.9783 9.9833 10.9038 10.0756L9.68306 11.6039C9.52783 11.798 9.25282 11.8489 9.03853 11.723C7.07162 10.5673 5.43246 8.92824 4.27681 6.96131C4.15094 6.74707 4.20197 6.47301 4.39595 6.31775L5.9233 5.0951C6.01605 5.02087 6.08262 4.91851 6.1108 4.80311C6.13893 4.68758 6.12783 4.56508 6.07955 4.45643L4.68599 1.31971C4.63422 1.20337 4.54287 1.1094 4.42818 1.05408C4.31332 0.99874 4.18243 0.985836 4.05904 1.01795Z" fill="currentColor"/>
</svg>
