<svg width="16" height="16" viewBox="0 0 16 16" fill="none" xmlns="http://www.w3.org/2000/svg">
<g clip-path="url(#clip0_22_2339)">
<path d="M12.1464 12.1465C12.3417 11.9512 12.6582 11.9512 12.8535 12.1465L15.8535 15.1465C16.0487 15.3418 16.0487 15.6583 15.8535 15.8535C15.6582 16.0488 15.3417 16.0488 15.1464 15.8535L12.1464 12.8535C11.9512 12.6583 11.9512 12.3418 12.1464 12.1465Z" fill="currentColor"/>
<path d="M12 6.5C12 3.46243 9.53757 1 6.5 1C3.46243 1 1 3.46243 1 6.5C1 9.53757 3.46243 12 6.5 12C9.53757 12 12 9.53757 12 6.5ZM13 6.5C13 10.0899 10.0899 13 6.5 13C2.91015 13 0 10.0899 0 6.5C0 2.91015 2.91015 0 6.5 0C10.0899 0 13 2.91015 13 6.5Z" fill="currentColor"/>
</g>
<defs>
<clipPath id="clip0_22_2339">
<rect width="16" height="16" fill="white"/>
</clipPath>
</defs>
</svg>
