<svg width="16" height="16" viewBox="0 0 16 16" fill="none" xmlns="http://www.w3.org/2000/svg">
<path d="M8.00001 7.99976C11.6851 7.99976 14.6979 10.8488 14.9736 14.4617C14.9946 14.7369 14.7889 14.9777 14.5137 14.9988C14.2383 15.0198 13.9976 14.8132 13.9766 14.5378C13.7402 11.4407 11.1569 8.99976 8.00001 8.99976C4.84333 8.99996 2.26073 11.4408 2.02442 14.5378C2.00341 14.8132 1.76265 15.0198 1.48731 14.9988C1.21197 14.9778 1.00536 14.737 1.02637 14.4617C1.30204 10.8489 4.31504 7.99996 8.00001 7.99976Z" fill="currentColor"/>
<path d="M11.0004 4.99976C11.0004 3.3429 9.65722 1.99976 8.00037 1.99976C6.34351 1.99976 5.00037 3.3429 5.00037 4.99976C5.00037 6.65661 6.34351 7.99976 8.00037 7.99976C9.65722 7.99976 11.0004 6.65661 11.0004 4.99976ZM12.0004 4.99976C12.0004 7.20889 10.2095 8.99976 8.00037 8.99976C5.79123 8.99976 4.00037 7.20889 4.00037 4.99976C4.00037 2.79062 5.79123 0.999756 8.00037 0.999756C10.2095 0.999756 12.0004 2.79062 12.0004 4.99976Z" fill="currentColor"/>
</svg>
