<svg width="16" height="16" viewBox="0 0 16 16" fill="none" xmlns="http://www.w3.org/2000/svg">
<path d="M14.8133 4.48659C14.6467 3.84659 14.1467 3.34659 13.5067 3.17992C12.3533 2.87992 8 2.87992 8 2.87992C8 2.87992 3.64667 2.87992 2.49333 3.17992C1.85333 3.34659 1.35333 3.84659 1.18667 4.48659C0.886667 5.63992 0.886667 7.99992 0.886667 7.99992C0.886667 7.99992 0.886667 10.3599 1.18667 11.5133C1.35333 12.1533 1.85333 12.6533 2.49333 12.8199C3.64667 13.1199 8 13.1199 8 13.1199C8 13.1199 12.3533 13.1199 13.5067 12.8199C14.1467 12.6533 14.6467 12.1533 14.8133 11.5133C15.1133 10.3599 15.1133 7.99992 15.1133 7.99992C15.1133 7.99992 15.1133 5.63992 14.8133 4.48659ZM6.55333 10.1866V5.81325L10.3067 7.99992L6.55333 10.1866Z" fill="currentColor"/>
</svg>
